<svg xmlns="http://www.w3.org/2000/svg" aria-hidden="true" style="position:absolute;width:0;height:0;overflow:hidden"><defs><symbol id="icon-line" viewBox="0 0 4466 32"><path d="M0 16.768V1.538l500.574 2.544c642.988 3.265 1580.009 3.257 2170.404-.015 372.697-2.07 1435.04-3.813 1486.882-2.443 13.148.35 16.154 5.489 5.259 9.558-6.762 2.667-223.521 4.448-941.792 7.746-241.74 1.108-633.071 2.96-869.664 4.117-488.289 2.382-556.059 2.491-1092.734 1.736-213.603-.301-389.114.203-390.053 1.116-.902.913-6.349.316-12.096-1.33-5.71-1.645-105.75-3.265-222.281-3.595-116.531-.334-300.626-1.059-409.099-1.608C14.164 18.293 3.202 18.669 6.327 26.81c1.095 2.855.119 5.192-2.168 5.192-2.357 0-4.159-6.6-4.159-15.233zm4315.263-2.325c-.376-.361-12.773-1.026-27.048-1.48-30.429-.954-43.201-3.107-43.201-7.269 0-1.623 3.757-2.904 8.265-2.848 4.884.053 53.72-.872 108.943-2.056 68.747-1.47 101.43-.897 102.932 1.8 4.508 7.374-7.138 9.906-48.836 10.635-22.916.398-54.847.984-71.001 1.3s-29.678.278-30.053-.083zm-102.18-4.861c-9.016-2.134-9.767-3.276-4.884-5.462 8.265-3.665 24.043-1.289 22.54 3.464-1.127 4.914-4.132 5.252-17.656 1.999z"/><path d="M1287.967 22.666c-.902-.89-12.96-2.036-26.822-2.551-25.019-.92-32.983-5.03-16.755-8.625 7.063-1.563 256.579-.455 267.473 1.191 2.104.316 1.953 2.16-.338 4.455-2.479 2.453-28.325 3.749-69.31 3.467-86.065-.594-147.148.289-150.191 2.168-1.352.83-3.156.785-4.057-.105zm360.376-.236c-1.202-1.225-14.313-2.186-29.114-2.141-19.347.064-26.484-1.183-25.395-4.429 1.428-4.192 18.896-4.722 96.659-2.93 7.213.165 56.275-.342 108.943-1.131 55.674-.834 97.635.026 100.152 2.055 2.63 2.092 5.222 2.115 6.499.056 2.442-3.952 116.945-3.738 120.927.229 1.428 1.446 4.508 1.428 6.8-.049 5.522-3.543 74.194-4.854 117.809-2.246 63.412 3.787 35.989 8.099-51.316 8.069-47.334-.015-87.906 1.108-90.16 2.494-2.254 1.39-5.86 1.439-8.002.109-2.141-1.326-32.157-2.171-66.681-1.878-97.372.834-182.235.841-190.5.019-4.132-.409-27.048.323-50.94 1.627s-44.441 1.367-45.681.146zM616.091 17.647c-57.627-5.293-5.86-9.67 105.186-8.896 27.874.195 142.565.793 254.776 1.334 184.865.883 224.835 2.63 198.99 8.685-8.866 2.085-535.548 1.026-558.952-1.123zm576.796-.413c-1.165-1.923-.789-4.343.902-5.38 4.32-2.682 38.393-.999 38.393 1.901 0 6.792-35.313 9.918-39.295 3.479zm324.799-1.375c0-4.253 7.213-5.263 35.726-4.996 46.169.432 45.193 7.386-1.277 9.076-27.837 1.014-34.448.229-34.448-4.08zm679.954-.18c0-7.776 256.391-10.282 264.28-2.585 7.175 7.01-149.515 10.887-172.881 4.279-5.86-1.653-23.254-1.634-38.656.034-16.417 1.781-28.926 1.623-30.166-.376-1.277-2.04-4.358-2.006-7.664.083-8.002 5.068-14.914 4.399-14.914-1.435zm274.235-1.522c0-3.524 13.824-4.812 55.411-5.165 30.466-.259 82.458-1.082 115.517-1.829 66.906-1.514 108.116 1.183 98.687 6.461-3.231 1.803-37.717 3.415-76.673 3.576-38.994.162-74.231.349-78.364.421-91.024 1.574-114.54.86-114.578-3.464zM0 11.1c0-4.181 13.849-5.113 74.194-4.989 78.645.158 105.498 2.727 77.95 7.449C122.095 18.714 0 16.738 0 11.099zm171.555 3.369c-5.721-5.721-1.679-8.761 11.582-8.708 18.224.075 27.66 5.466 15.346 8.764-11.548 3.092-23.81 3.065-26.928-.056zm44.7-1.131c-17.021-6.048 9.444-7.081 180.221-7.025 177.577.056 197.074.77 197.074 7.228 0 3.824-366.517 3.629-377.28-.203zm2542.651-.646c-2.78-4.534 22.916-6.108 82.984-5.079 69.723 1.198 65.741.879 65.741 5.229 0 3.802-146.359 3.651-148.726-.15zm155.375-2.411c-3.644-4.392 2.667-5.06 40.534-4.279 54.021 1.119 71.865 3.242 64.877 7.727-8.64 5.534-100.453 2.528-105.412-3.449zm122.016 4.192c-15.402-6.168 4.395-8.396 77.011-8.667 44.93-.165 120.588-.488 168.11-.71 47.522-.225 109.243-.184 137.118.094 27.874.274 86.779.06 130.882-.481 44.066-.541 80.956.334 81.97 1.946.977 1.612 3.494 1.871 5.597.579 7.325-4.527 461.88-4.606 460.377-.079-1.127 3.933-190.086 6.322-462.819 5.849-45.455-.079-86.027-.143-90.16-.139s-29.49.237-56.35.522-64.915.406-84.525.27c-19.61-.139-109.243.413-199.102 1.225s-165.518.627-168.11-.409zm1259.417-5.361c-16.529-1.972-17.281-2.355-5.635-3.343 42.45-3.61 75.133-3.144 75.133 1.082 0 4.94-36.815 6.138-69.498 2.261zm-189.711-1.104c0-3.084 22.916-4.636 24.794-1.675 1.127 1.721-4.132 3.129-11.27 3.129-7.513 0-13.524-.654-13.524-1.454zm30.053-2.303c0-2.066 3.381-3.757 7.138-3.757 4.132 0 8.64 1.691 9.767 3.757 1.503 2.13-1.878 3.757-7.138 3.757s-9.767-1.691-9.767-3.757zm241.553 1.401c3.757-3.847 43.577-4.76 46.207-1.056 1.127 1.916-9.016 3.411-23.291 3.411-13.9 0-24.418-1.059-22.916-2.355zm66.492-1.401c0-2.066 3.381-3.757 7.889-3.757 4.132 0 6.386 1.691 5.259 3.757s-4.884 3.757-7.889 3.757-5.259-1.691-5.259-3.757z"/></symbol><symbol id="icon-tick" viewBox="0 0 32 32"><path d="M15.669 2.945c-7.709 0-13.984 6.276-13.984 13.983 0 7.709 6.275 13.984 13.984 13.984s13.984-6.275 13.984-13.984c0-3.331-1.128-6.312-3.043-8.753l-1.315 1.561c1.669 2.056 2.323 4.338 2.323 7.193 0 6.605-5.342 11.944-11.948 11.944S3.722 23.534 3.722 16.929 9.064 4.982 15.67 4.982c2.093 0 3.658.301 5.368 1.245l1.251-1.643c-2.001-1.105-4.177-1.639-6.619-1.639z"/><path d="M10.493 15.089c.564 0 .99.463 1.28 1.389.578 1.735.99 2.602 1.236 2.602.187 0 .382-.145.584-.435 4.064-6.506 7.823-11.769 11.279-15.789.896-1.041 2.321-1.562 4.273-1.562.461 0 .773.043.931.13.16.087.239.195.239.325 0 .202-.239.6-.716 1.193a210.618 210.618 0 0 0-15.528 21.255c-.333.52-1.012.781-2.04.781-1.041 0-1.656-.044-1.843-.131-.492-.216-1.071-1.322-1.736-3.318-.751-2.211-1.127-3.601-1.127-4.163 0-.608.505-1.194 1.517-1.758.621-.347 1.172-.52 1.649-.52z"/></symbol><symbol id="icon-envelope" viewBox="0 0 32 32"><path d="M3.071 11.179c.405.286 1.625 1.134 3.661 2.545s3.595 2.497 4.679 3.259c.119.084.372.265.759.545s.708.506.964.679c.256.172.565.366.929.58s.705.375 1.027.482c.322.107.619.161.893.161h.036c.274 0 .571-.053.893-.161s.664-.268 1.027-.482c.363-.214.672-.408.928-.58s.577-.399.964-.679.64-.461.759-.545c1.095-.762 3.881-2.696 8.357-5.804.869-.607 1.595-1.339 2.178-2.196S32 7.227 32 6.287c0-.786-.283-1.458-.848-2.018s-1.235-.839-2.009-.839H2.857c-.917 0-1.622.309-2.116.928S0 5.751 0 6.679c0 .75.328 1.563.982 2.438s1.351 1.563 2.089 2.063z"/><path d="M30.214 13.089c-3.904 2.643-6.869 4.696-8.893 6.161-.679.5-1.229.89-1.652 1.17s-.985.565-1.687.857c-.702.292-1.357.438-1.964.438h-.036c-.607 0-1.262-.146-1.964-.438s-1.265-.577-1.687-.857c-.422-.28-.973-.67-1.652-1.17-1.607-1.178-4.566-3.232-8.875-6.161A9.461 9.461 0 0 1 0 11.536v14.178c0 .786.28 1.459.839 2.018s1.232.84 2.018.84h26.286c.786 0 1.458-.28 2.018-.84S32 26.5 32 25.714V11.536a9.843 9.843 0 0 1-1.786 1.553z"/></symbol><symbol id="icon-home" viewBox="0 0 32 32"><path d="M12.18 27.698v-4.077a1.89 1.89 0 0 1 1.898-1.884h3.832c.503 0 .986.199 1.342.552s.556.833.556 1.332v4.077c-.003.433.168.849.475 1.156s.725.48 1.161.48h2.614c1.221.003 2.393-.476 3.258-1.332s1.35-2.018 1.35-3.231V13.156c0-.979-.437-1.908-1.194-2.536l-8.894-7.052a4.131 4.131 0 0 0-5.265.095L4.622 10.62a3.298 3.298 0 0 0-1.289 2.536v11.603c0 2.527 2.063 4.575 4.608 4.575h2.555c.905 0 1.641-.725 1.648-1.624l.036-.012z"/></symbol><symbol id="icon-phone" viewBox="0 0 32 32"><path d="m28.853 21.796-4.516-.516a3.543 3.543 0 0 0-2.916 1.013l-3.271 3.271A26.75 26.75 0 0 1 6.434 13.848l3.289-3.289a3.538 3.538 0 0 0 1.013-2.916l-.516-4.48A3.557 3.557 0 0 0 6.682.016H3.606C1.597.016-.074 1.687.05 3.696c.942 15.182 13.084 27.307 28.249 28.249 2.009.124 3.68-1.547 3.68-3.556v-3.076c.018-1.796-1.333-3.307-3.129-3.52z"/></symbol></defs></svg>